# xmcd CD database file
#
# Track frame offsets:
#	150
#	8662
#	24907
#	42324
#	57191
#	77574
#	103695
#	126598
#	143879
#	163584
#	188117
#	207003
#	216227
#	235548
#	255638
#	269446
#
# Disc length: 3820 seconds
#
# Revision: 2
# Processed by: cddbd v1.4PL0 Copyright (c) Steve Scherf et al.
# Submitted via: CDex 1.50Beta3
#
DISCID=d70eea10
DTITLE=Alicia Keys - Songs In A Minor
DYEAR=2001
DGENRE=Soul
TTITLE0=Piano and I
TTITLE1=Girlfriend
TTITLE2=How Come You Don't Call Me
TTITLE3=Fallin'
TTITLE4=Troubles
TTITLE5=Rock Wit You
TTITLE6=A Woman's Worth
TTITLE7=Jane Doe
TTITLE8=Goodbye
TTITLE9=The Life
TTITLE10=Mr. Man (Duet With Jimmy Cozier)
TTITLE11=Never Felt This Way (Interlude)
TTITLE12=Butterflyz
TTITLE13=Why Do I Feel So Sad
TTITLE14=Caged Bird
TTITLE15=Lovin U (Bonus Track)
EXTD=YEAR: 2001
EXTT0=
EXTT1=
EXTT2=
EXTT3=
EXTT4=
EXTT5=
EXTT6=
EXTT7=
EXTT8=
EXTT9=
EXTT10=
EXTT11=
EXTT12=
EXTT13=
EXTT14=
EXTT15=
PLAYORDER=
